<svg width="128" height="84" xmlns="http://www.w3.org/2000/svg">
 <g>
  <title>Layer 1</title>
  <g id="svg_7">
   <g id="svg_16">
    <text transform="matrix(0.436457, 0, 0, 0.347491, 14.201, 41.7411)" xml:space="preserve" text-anchor="middle" font-family="Sans-serif" font-size="45" id="svg_4" y="73.16682" x="115.07913" stroke-width="0" stroke="#000000" fill="#3f3f3f">Consultoría</text>
    <line stroke-width="3" id="svg_10" y2="77.41659" x2="112.00186" y1="77.41659" x1="13.36248" stroke-linecap="null" stroke-linejoin="null" stroke="#cccccc" fill="none"/>
    <text transform="matrix(0.436457, 0, 0, 0.347491, 14.201, 41.7411)" xml:space="preserve" text-anchor="middle" font-family="Sans-serif" font-size="30" id="svg_5" y="113.16682" x="111.07915" stroke-width="0" stroke="#000000" fill="#3f3f3f">Política</text>
   </g>
   <g id="svg_6">
    <text transform="matrix(0.541667, 0, 0, 0.454545, 155.417, 103.636)" xml:space="preserve" text-anchor="middle" font-family="Sans-serif" font-size="100" id="svg_1" y="-136.00077" x="-189.90384" stroke-width="0" stroke="#000000" fill="#cc167a">D</text>
    <text transform="matrix(0.541667, 0, 0, 0.454545, 155.417, 103.636)" xml:space="preserve" text-anchor="middle" font-family="Sans-serif" font-size="101" id="svg_2" y="-135.50077" x="-178.90384" stroke-width="0" stroke="#000000" fill="#025959">L</text>
    <text transform="matrix(0.541667, 0, 0, 0.454545, 155.417, 103.636)" xml:space="preserve" text-anchor="middle" font-family="Sans-serif" font-size="100" id="svg_3" y="-136.00077" x="-149.90384" stroke-width="0" stroke="#000000" fill="#777777">O</text>
    <path id="svg_11" d="m6.24991,43.33842c-1.31082,0.03864 -3.22943,-0.56091 -1.88935,-1.89772c1.45926,-0.50953 -0.25946,-2.19728 1.20304,-2.99182c1.17434,-1.47909 2.76956,-2.83046 3.2511,-4.63728c-0.07529,-1.22589 -1.72739,-1.9509 -0.93927,-3.30727c-0.77347,-2.16999 -0.59473,-4.66818 0.81738,-6.61909c1.1987,-1.81226 2.65418,-3.73181 2.50089,-5.925c-1.50367,0.55546 -3.0951,1.04274 -4.74988,0.79045c-1.55567,-0.12772 -2.95099,0.98683 -4.53809,0.38048c-1.60873,-0.29546 -2.56534,-2.1991 -1.36609,-3.31273c1.31085,-0.99047 3.23645,-1.02274 4.48663,-2.12865c1.64939,-1.20909 3.17472,-2.845 5.44754,-3.05864c1.0048,-0.20363 1.43595,-1.09682 1.9917,-1.76682c0.46207,1.06182 1.2659,2.00136 2.47596,2.47228c2.45971,1.26091 3.07235,3.92818 3.97964,6.11955c0.67056,1.71727 1.22958,3.50954 2.353,5.04227c0.01193,0.73546 -1.24909,1.04591 -0.39759,1.90863c0.44309,2.3382 0.46204,4.73318 0.42304,7.09955c-0.7475,1.15773 -1.42783,2.45091 -0.43115,3.77862c0.66571,1.62456 2.32318,2.68956 3.13894,4.22183c0.46097,0.7941 -0.89913,1.94637 0.79517,1.74682c1.547,0.72456 0.29791,2.49273 -1.24094,1.97865c-5.7666,0.12953 -11.54562,0.25952 -17.31167,0.10589l0,0l0,0z" stroke-linecap="null" stroke-linejoin="null" stroke-width="0" stroke="#000000" fill="#3f3f3f"/>
    <path id="svg_13" d="m103.85336,42.01752c-1.40942,0.26863 -2.496,-1.52819 -0.74804,-1.72364c1.5378,0.02456 -0.38242,-1.27772 1.00589,-1.71546c1.59628,-1.32181 3.17956,-2.7 4.20224,-4.40136c-0.5146,-0.57954 -1.3661,-1.13365 -1.25449,-1.92682c1.00263,-0.28953 2.49814,-0.09364 2.55774,-1.43727c0.91217,-2.42456 1.15591,-4.98864 1.35522,-7.51454c-1.00639,-0.67728 -3.07989,-0.0359 -4.48769,-0.3809c-2.13522,-0.48865 0.79572,-1.42456 1.73606,-1.34729c0.84499,0.00137 2.09624,-0.44045 0.68142,-0.77817c1.19327,-0.04683 2.90873,-1.33046 0.94791,-1.79274c1.45383,-0.8859 0.33313,-2.81319 -0.27463,-3.92136c-0.91434,-1.33818 -2.42072,-2.30774 -4.12155,-2.82455c-0.27463,-1.36453 2.34814,-0.96137 3.41251,-1.03227c1.61148,0.05227 3.25381,-0.01636 4.65726,-0.76044c1.8969,-0.7441 3.5089,0.49773 5.24442,0.76044c1.75445,0.09546 3.57931,-0.26772 5.28937,0.15365c0.52924,0.31999 1.40997,0.82454 0.34885,1.06635c-2.02423,0.95591 -3.91519,2.36863 -4.4227,4.37408c-0.76538,1.11594 0.59148,2.08411 -0.64893,2.88455c-0.013,0.94138 2.87948,1.07318 1.26046,1.53682c1.10932,0.51 3.48941,0.18819 3.73316,1.32183c-1.00858,0.67227 -2.42072,0.40681 -3.62863,0.47c-0.40894,0.11773 -1.43705,-0.2891 -1.28052,0.30954c-0.08069,2.6809 0.74048,5.31773 1.53454,7.89093c0.0011,1.26091 3.66547,0.54544 1.62879,1.9768c-1.50418,1.09864 0.70148,2.63773 1.46469,3.61547c1.04001,1.07226 2.88599,1.61499 2.73218,3.18908c1.05893,0.06409 2.31833,1.46273 0.85422,1.81136c-7.92353,0.1409 -15.85406,0.23819 -23.77972,0.19591c0,0 0,0 0,0l0,0z" stroke-linecap="null" stroke-linejoin="null" stroke-width="0" stroke="#000000" fill="#3f3f3f"/>
   </g>
  </g>
 </g>
</svg>