<?xml version="1.0" standalone="no"?>
<!DOCTYPE svg PUBLIC "-//W3C//DTD SVG 20010904//EN"
 "http://www.w3.org/TR/2001/REC-SVG-20010904/DTD/svg10.dtd">
<svg version="1.0" xmlns="http://www.w3.org/2000/svg"
 width="821.000000pt" height="246.000000pt" viewBox="0 0 821.000000 246.000000"
 preserveAspectRatio="xMidYMid meet">
<metadata>
Created by potrace 1.15, written by Peter Selinger 2001-2017
</metadata>
<g transform="translate(0.000000,246.000000) scale(0.100000,-0.100000)"
fill="#000000" stroke="none">
<path d="M1230 2448 c19 -5 40 -13 45 -17 44 -33 291 -93 304 -74 9 14 97 72
134 88 29 13 3 14 -243 14 -197 -1 -265 -4 -240 -11z"/>
<path d="M2200 2452 c0 -5 11 -19 25 -32 13 -12 23 -30 22 -39 -1 -9 -30 -45
-65 -80 -61 -64 -62 -64 -107 -58 -26 4 -45 3 -45 -3 0 -5 -17 -3 -37 4 -39
13 -133 10 -133 -4 0 -4 -7 -11 -16 -14 -10 -4 -13 -2 -8 6 5 8 2 9 -10 5 -10
-4 -21 -7 -24 -7 -4 0 0 -5 8 -11 12 -8 10 -9 -7 -4 -12 3 -37 -1 -55 -10 -28
-14 -30 -14 -14 -1 23 18 15 32 -11 21 -10 -5 -24 -7 -31 -6 -8 1 -23 -5 -33
-15 -10 -9 -19 -14 -19 -10 0 4 -12 -2 -26 -13 -15 -12 -31 -21 -36 -21 -5 0
-23 -13 -40 -30 -16 -16 -35 -30 -43 -30 -7 0 -15 -6 -18 -14 -3 -7 -20 -16
-37 -20 -18 -3 -46 -21 -63 -40 -54 -58 -56 -60 -89 -93 -18 -18 -38 -33 -44
-33 -20 0 -53 -49 -59 -89 -3 -20 -10 -44 -15 -53 -30 -54 -78 -239 -83 -318
-3 -43 -12 -67 -41 -110 -62 -94 -54 -153 63 -472 12 -32 21 -79 21 -105 0
-47 2 -49 55 -87 63 -45 177 -160 173 -174 -4 -13 54 -91 67 -92 6 0 22 -10
36 -23 98 -84 132 -107 214 -148 91 -45 185 -106 185 -119 0 -4 12 -12 26 -19
l26 -11 -2 52 c-4 83 1 97 14 48 7 -25 10 -47 7 -50 -11 -9 -7 -65 5 -77 7 -7
14 -18 16 -24 3 -9 10 -8 28 2 30 16 46 13 78 -12 24 -18 49 -19 598 -19 316
0 574 3 574 6 0 6 -86 137 -140 213 -52 72 -134 171 -209 251 -40 42 -71 83
-71 95 0 31 -78 26 -101 -7 -10 -12 -51 -61 -91 -109 -57 -66 -85 -90 -127
-109 -29 -13 -70 -35 -90 -48 -20 -14 -88 -52 -151 -84 -63 -33 -143 -80 -177
-104 -38 -27 -68 -42 -77 -38 -16 6 -22 24 -8 24 12 0 73 106 137 240 16 34
52 80 94 120 80 78 135 158 120 177 -6 7 -19 15 -29 18 -13 4 -23 23 -31 60
-11 51 -11 55 10 72 22 19 44 105 31 120 -4 4 -13 24 -19 43 -6 19 -27 53 -47
75 -19 22 -40 51 -47 64 -19 39 -37 38 -30 -1 5 -32 3 -34 -24 -33 -20 0 -28
5 -27 17 1 10 -4 14 -12 11 -8 -3 -14 -1 -14 5 0 5 -9 12 -20 15 -26 7 -26 41
1 78 17 24 24 28 35 18 23 -19 26 -4 4 24 -11 14 -22 45 -25 69 -3 25 -13 50
-25 59 -10 9 -22 29 -26 44 -6 24 -4 27 17 25 40 -4 41 -1 14 27 -14 15 -25
34 -25 42 0 18 -58 83 -85 96 -21 9 -21 12 -9 43 8 17 21 32 29 32 20 0 19 16
-1 24 -14 5 -14 9 -3 22 10 12 24 15 59 10 39 -5 43 -4 27 8 -9 7 -35 16 -57
20 -41 6 -48 14 -29 33 13 13 -11 93 -29 93 -7 0 -10 5 -7 10 5 8 11 8 19 1 9
-8 18 -6 32 7 10 9 29 18 41 19 18 2 23 -4 29 -34 5 -28 9 -32 16 -19 5 9 7
20 4 25 -8 13 10 16 96 16 70 0 75 1 66 18 -9 18 -8 18 16 2 14 -10 26 -23 26
-31 0 -7 32 -46 71 -86 39 -40 78 -86 86 -103 20 -38 17 -36 37 -29 9 3 16 16
16 28 1 20 1 20 15 -4 8 -14 14 -34 15 -44 0 -11 3 -16 6 -13 11 11 10 80 -1
102 -24 47 -27 49 -40 24 -13 -23 -13 -23 -23 14 -12 45 -90 140 -109 133 -7
-3 -22 3 -33 14 -11 11 -26 20 -33 20 -7 0 -20 9 -30 20 -17 20 -16 21 5 29
22 8 21 9 -12 26 -37 19 -52 34 -44 47 7 10 -60 21 -98 16 -36 -6 -108 34
-108 58 0 8 -7 14 -15 14 -8 0 -14 5 -12 11 1 6 -6 13 -16 14 -27 5 -34 15
-17 25 21 13 7 22 -37 22 -35 0 -36 1 -15 11 17 8 39 7 80 -1 41 -9 58 -9 63
-1 4 6 8 7 10 2 2 -5 24 -16 48 -26 33 -12 48 -14 58 -5 11 9 11 14 -2 28 -18
20 -19 30 -4 30 6 0 35 26 64 58 l54 57 28 -17 c29 -17 45 -42 20 -33 -8 4
-23 -8 -38 -29 -13 -20 -27 -36 -30 -36 -9 0 -49 -36 -49 -44 0 -3 4 -6 9 -6
13 0 101 85 101 98 0 13 57 9 71 -5 8 -8 -9 -31 -60 -83 -73 -74 -84 -88 -53
-71 27 16 52 38 52 45 0 17 83 87 98 83 10 -3 69 -21 132 -41 95 -30 136 -37
239 -43 l124 -6 42 -41 c23 -23 66 -52 96 -66 30 -13 56 -25 58 -27 2 -1 -7
-20 -21 -41 -46 -69 -77 -139 -92 -208 -22 -97 -48 -326 -39 -333 4 -3 8 -62
9 -131 0 -99 4 -133 18 -162 10 -21 23 -38 30 -38 7 0 12 -37 14 -113 2 -61 4
-131 5 -154 1 -23 -2 -41 -8 -40 -5 1 -11 -14 -13 -33 -2 -24 -13 -44 -34 -63
l-31 -28 156 -104 c85 -56 159 -104 164 -106 22 -9 173 -123 173 -131 0 -4 5
-8 10 -8 6 0 38 -19 71 -42 97 -69 142 -185 105 -273 -14 -33 -14 -35 5 -35
10 0 19 5 19 11 0 8 4 8 14 0 8 -7 34 -11 58 -9 34 2 43 7 42 20 -1 10 3 15 8
11 7 -4 8 10 4 40 -4 28 -3 48 4 52 15 10 12 62 -6 79 -8 9 -24 16 -35 16 -17
0 -24 11 -20 33 5 27 4 55 -3 73 -5 16 1 30 20 53 21 25 33 31 64 31 22 0 52
6 67 12 34 15 113 95 133 134 8 16 33 48 56 70 60 60 114 146 114 181 0 16 7
38 15 49 8 10 15 28 15 40 0 11 7 29 15 40 24 32 18 51 -9 25 l-24 -22 -19 25
c-11 14 -32 28 -46 32 -15 3 -27 9 -27 13 0 8 -45 31 -59 31 -5 0 -8 -12 -7
-28 0 -15 -3 -29 -9 -30 -5 -2 -19 -9 -30 -15 -28 -16 -45 -15 -85 4 -20 10
-48 15 -67 12 -25 -4 -37 1 -62 25 -17 16 -31 34 -31 41 0 16 -30 14 -120 -10
-44 -11 -85 -17 -92 -13 -8 5 -9 1 -5 -12 7 -18 6 -18 -7 -1 -7 9 -20 17 -29
17 -8 0 -17 7 -21 15 -3 8 -16 15 -28 15 -15 0 -29 11 -40 31 -13 22 -24 29
-40 27 -20 -3 -23 2 -26 38 -2 30 1 43 12 47 9 4 16 2 16 -4 0 -6 4 -7 10 -4
6 3 0 17 -14 32 -25 26 -24 58 0 49 9 -3 14 2 14 14 0 14 7 20 21 20 18 0 19
2 9 15 -10 12 -10 15 4 15 9 0 21 -9 28 -20 7 -11 18 -20 25 -20 7 0 21 -7 32
-16 25 -22 86 -45 131 -50 19 -3 54 -7 78 -10 29 -4 42 -10 42 -21 0 -11 6
-14 25 -9 26 7 46 -16 37 -44 -8 -26 76 62 89 92 19 47 48 34 68 -30 9 -29 20
-50 24 -46 4 4 7 2 7 -4 0 -7 5 -12 10 -12 6 0 10 9 10 21 0 16 4 19 21 14 12
-4 27 -8 33 -9 6 -2 31 -9 56 -16 52 -16 68 -14 93 7 16 15 17 14 17 -21 0
-24 4 -35 11 -31 6 4 7 19 4 36 -4 16 -4 42 0 59 6 26 9 29 27 19 27 -15 48
-5 41 20 -3 14 -14 21 -29 21 -23 0 -24 3 -24 73 0 41 5 78 11 84 7 7 13 72
17 166 l5 154 -49 109 c-26 60 -54 115 -61 122 -7 7 -13 17 -13 22 0 5 -11 20
-25 34 -32 32 -31 40 1 55 43 19 140 98 174 141 l32 41 127 -1 c194 -1 393 28
571 85 69 22 239 91 249 101 2 2 -380 4 -850 3 l-854 -1 58 -28 c32 -15 66
-30 76 -33 24 -6 48 -43 56 -87 l6 -35 -100 3 c-131 5 -277 -25 -371 -75 -36
-19 -72 -41 -81 -49 -24 -21 -29 -17 -29 24 0 42 18 64 60 77 55 17 206 127
240 175 l21 30 -665 0 c-366 0 -666 -4 -666 -8z m1340 -499 c0 -3 -15 -18 -32
-34 l-33 -28 60 5 c33 3 79 10 102 16 30 7 51 7 78 -2 36 -12 39 -11 62 16 14
16 22 21 19 12 -9 -31 19 -41 56 -19 18 12 32 23 31 26 -2 3 -1 5 2 5 3 0 14
0 25 0 11 0 20 -7 20 -15 0 -18 31 -20 48 -3 9 9 12 8 12 -6 0 -12 5 -16 19
-11 12 3 21 0 25 -10 3 -8 15 -15 26 -15 11 0 20 -4 20 -9 0 -5 16 -12 36 -16
46 -8 100 -43 113 -73 22 -48 34 -168 27 -290 -3 -68 -8 -128 -11 -133 -4 -5
-14 -5 -25 1 -11 6 -56 11 -101 12 -69 2 -84 -1 -95 -17 -8 -10 -14 -14 -14
-7 0 12 -26 6 -49 -12 -7 -6 -21 -11 -29 -11 -8 0 -17 -6 -20 -14 -3 -10 2
-12 21 -7 22 5 26 3 24 -14 -1 -14 -8 -20 -24 -20 -25 0 -39 17 -35 43 2 11
-3 17 -17 17 -17 0 -21 6 -21 35 0 29 -5 37 -27 47 -43 17 -251 28 -301 16
-38 -9 -45 -8 -57 8 -7 11 -10 20 -5 22 12 4 -9 43 -32 60 -20 14 -25 37 -6
26 8 -5 9 7 4 47 -4 30 -8 61 -8 69 0 8 -6 22 -13 30 -7 8 -10 29 -8 45 11 88
15 111 20 125 4 8 5 19 4 23 -1 5 8 11 19 14 11 3 17 10 14 15 -8 13 21 33 51
34 14 1 25 0 25 -3z m-1319 -1051 c22 -42 39 -91 39 -109 l0 -32 -29 17 c-16
9 -27 21 -24 27 4 5 3 7 -2 3 -4 -4 -24 4 -44 17 -19 14 -41 25 -48 25 -7 0
-13 5 -13 10 0 6 -9 10 -20 10 -22 0 -27 15 -9 26 6 3 8 17 4 31 -10 41 3 66
31 59 15 -4 33 -1 47 9 20 14 22 14 25 0 2 -9 21 -51 43 -93z m1236 -24 c4
-55 13 -79 13 -35 0 58 24 76 35 26 4 -17 15 -33 24 -36 21 -5 46 -52 63 -116
7 -27 19 -55 28 -63 48 -47 66 -56 102 -52 21 2 38 0 38 -5 0 -5 12 -7 27 -5
23 3 30 -4 54 -47 16 -27 28 -52 29 -55 0 -9 -105 1 -115 11 -5 5 -19 9 -31 9
-13 0 -29 7 -38 15 -8 8 -19 15 -25 15 -6 0 -19 4 -29 9 -9 5 -31 15 -49 21
-19 7 -30 17 -27 25 7 17 -27 50 -36 35 -4 -7 -24 24 -48 73 -46 93 -62 179
-42 216 16 31 22 21 27 -41z m688 -92 c-18 -53 -50 -92 -61 -74 -4 7 -10 5
-16 -6 -5 -9 -15 -16 -23 -16 -8 0 -11 -7 -9 -17 6 -21 -56 -93 -79 -93 -19 0
-29 -26 -22 -54 5 -17 4 -18 -4 -6 -6 8 -11 11 -11 5 -1 -5 -5 1 -11 13 -10
26 -5 42 14 42 7 0 31 40 55 89 24 49 54 102 68 118 27 32 31 28 9 -13 -18
-35 -19 -54 -2 -54 6 0 23 26 37 56 14 31 26 50 28 41 2 -9 -2 -25 -8 -36 -6
-12 -7 -21 -3 -21 4 0 17 18 27 40 25 53 31 45 11 -14z m-2008 -18 c68 4 104
-32 120 -117 2 -14 6 -28 9 -33 3 -4 0 -8 -7 -8 -8 0 -8 -4 1 -15 12 -14 7
-20 -15 -15 -5 1 -7 -2 -3 -5 10 -10 -11 -47 -22 -40 -6 4 -7 -1 -3 -11 4 -12
3 -15 -5 -10 -7 4 -20 0 -29 -10 -11 -10 -18 -13 -21 -6 -2 6 -19 14 -37 18
-23 4 -43 18 -60 40 -32 42 -80 49 -73 11 4 -19 0 -22 -21 -21 -21 1 -25 6
-23 25 1 13 8 37 15 52 10 22 17 27 37 23 25 -5 25 -5 3 6 -13 6 -23 15 -23
20 0 10 3 10 34 -2 31 -11 73 4 79 29 5 27 -23 61 -52 62 -14 0 -35 5 -46 10
-13 6 2 7 45 2 36 -3 79 -6 97 -5z"/>
<path d="M5808 2448 c17 -6 32 -15 32 -19 0 -5 5 -9 12 -9 6 0 35 -11 63 -25
57 -27 75 -56 75 -122 0 -48 -44 -133 -95 -183 -41 -41 -43 -41 -82 -31 -27 7
-43 18 -46 31 -4 14 -10 18 -23 13 -14 -5 -16 -3 -11 11 5 13 3 17 -7 13 -9
-4 -16 4 -20 24 -3 19 -14 33 -30 39 -13 5 -27 14 -31 19 -3 6 -21 11 -40 11
-19 0 -37 5 -40 10 -3 6 -14 10 -24 10 -10 0 -29 8 -42 18 -21 16 -54 27 -149
48 -54 12 -171 5 -213 -14 -23 -10 -64 -24 -92 -32 -27 -7 -58 -20 -69 -29
-10 -9 -21 -15 -25 -15 -18 4 -57 -21 -114 -73 -34 -32 -79 -72 -100 -90 -24
-21 -37 -41 -37 -56 0 -14 -7 -30 -15 -37 -23 -19 -48 -78 -41 -95 3 -8 12
-15 21 -15 17 0 17 -1 5 -99 -6 -44 -6 -79 -1 -85 5 -6 6 -33 2 -61 -9 -64 -7
-359 3 -405 12 -56 43 -142 65 -184 28 -54 58 -83 97 -96 l34 -12 0 -76 c1
-42 5 -108 10 -147 7 -56 6 -74 -6 -93 -8 -12 -19 -20 -23 -17 -5 2 -20 -13
-34 -34 -42 -63 -131 -125 -217 -150 -41 -13 -111 -36 -155 -52 -44 -17 -96
-34 -115 -39 -61 -15 -423 -162 -446 -181 -16 -13 -18 -5 -5 20 5 9 6 23 2 29
-10 16 -41 5 -41 -15 0 -8 -10 -37 -22 -65 -16 -38 -19 -53 -10 -56 10 -3 10
-7 1 -18 -10 -12 67 -14 534 -14 l545 0 8 77 c4 45 2 135 -5 213 -14 165 -14
185 0 252 l12 53 22 -68 c25 -77 36 -90 243 -283 103 -97 139 -124 160 -124
23 0 55 27 168 142 77 79 151 159 166 178 61 84 86 161 114 352 15 103 20 118
40 127 16 7 25 22 30 48 4 21 15 61 25 88 24 68 36 137 49 292 8 87 8 138 2
149 -6 11 -7 27 -1 41 5 13 6 30 3 38 -4 8 -1 15 5 15 16 0 14 19 -4 36 -16
17 -21 39 -6 29 6 -3 6 6 1 24 -4 17 -8 51 -8 77 0 25 -5 51 -11 57 -6 6 -11
21 -11 33 0 12 -7 27 -15 34 -9 7 -14 19 -11 25 2 7 0 18 -4 26 -5 7 -5 18 0
24 4 5 8 15 8 20 0 6 38 19 84 31 203 51 392 144 465 229 l38 44 116 2 c182 2
406 43 529 96 32 14 65 21 112 26 9 1 15 3 13 6 -3 2 12 15 33 27 l37 23 -760
0 c-542 -1 -751 -4 -727 -11z m-249 -487 c6 -10 22 -22 37 -25 22 -6 25 -11
20 -31 -6 -25 8 -36 17 -12 2 6 7 9 11 6 3 -3 4 -13 0 -22 -4 -13 -10 -14 -24
-7 -10 6 -26 7 -34 4 -11 -4 -16 -1 -16 10 0 9 -5 15 -12 14 -7 -2 -15 11 -19
27 -7 24 -7 23 -4 -10 12 -104 11 -172 -2 -205 -7 -19 -17 -37 -21 -40 -4 -3
-12 -14 -18 -25 -7 -12 -22 -20 -37 -20 -15 1 -23 -4 -20 -10 14 -25 37 -45
52 -45 9 0 33 -11 53 -25 25 -17 39 -21 44 -14 4 8 11 3 20 -12 7 -13 10 -27
7 -31 -2 -5 3 -11 11 -14 9 -3 16 -10 16 -15 0 -5 -10 -5 -22 0 -15 5 -42 3
-73 -5 -27 -8 -109 -16 -182 -18 -117 -5 -134 -3 -143 12 -8 12 -13 14 -16 5
-8 -19 -21 -16 -27 7 -3 13 -14 20 -30 20 -29 0 -67 48 -47 60 6 4 10 11 8 16
-1 5 52 8 120 8 67 -1 122 3 122 8 0 4 -26 8 -57 8 l-58 0 24 19 c21 16 21 19
6 24 -9 4 -32 7 -51 7 -19 0 -34 4 -34 10 0 6 -20 8 -50 4 -42 -5 -49 -3 -44
10 4 10 0 18 -10 22 -9 3 -16 14 -16 24 0 10 -5 20 -12 22 -7 3 -9 14 -4 31 5
20 16 29 44 37 20 5 50 18 65 29 16 10 37 17 46 14 10 -2 26 3 35 12 9 9 23
14 31 11 8 -3 19 3 24 12 9 15 13 15 31 4 25 -15 42 -6 20 9 -12 9 -11 9 5 4
51 -19 95 -22 106 -8 13 15 33 12 35 -5 1 -7 2 -18 3 -24 1 -8 6 -6 12 5 7 13
7 22 0 31 -9 10 -8 15 5 20 9 3 14 12 11 19 -6 16 10 57 22 57 6 0 15 -8 20
-19z m-211 -658 c2 -18 8 -33 14 -33 7 0 6 -6 -2 -15 -7 -9 -10 -25 -6 -41 4
-14 9 -55 12 -92 3 -37 6 -74 7 -82 1 -8 -1 -15 -5 -15 -4 0 -14 -9 -22 -20
-13 -18 -15 -19 -20 -2 -3 9 -9 25 -12 35 -4 9 -8 61 -9 114 -1 54 -8 111 -15
128 -15 36 1 63 34 58 16 -2 22 -11 24 -35z m311 -121 c-17 -7 -38 -19 -45
-27 -8 -7 -23 -11 -36 -8 -23 6 -23 6 -5 -15 18 -19 18 -21 0 -30 -10 -6 -14
-14 -9 -19 5 -4 11 -2 13 5 5 12 23 7 23 -7 0 -15 -51 -31 -68 -22 -9 4 -22 7
-28 4 -18 -6 -31 19 -38 75 l-7 52 43 -4 c24 -3 50 -6 58 -7 46 -6 79 2 85 21
5 17 9 18 26 7 19 -11 18 -13 -12 -25z"/>
<path d="M7286 2380 c-43 -44 -82 -80 -87 -80 -5 0 -9 -7 -9 -16 0 -8 -4 -13
-8 -10 -5 3 -16 -8 -26 -25 -19 -31 -66 -42 -66 -14 0 11 -5 12 -25 5 -17 -7
-25 -6 -25 1 0 8 -4 8 -12 2 -7 -6 -51 -9 -98 -8 -58 1 -96 -3 -120 -13 -19
-9 -43 -19 -53 -24 -10 -4 -16 -4 -13 1 6 9 -16 21 -39 21 -7 0 -16 -7 -19
-16 -5 -13 -4 -14 7 -6 8 7 17 9 20 5 13 -13 7 -23 -14 -23 -14 0 -19 -5 -16
-14 4 -10 -3 -13 -26 -12 -19 1 -31 -4 -30 -10 1 -7 -6 -10 -17 -7 -25 7 -132
-46 -126 -62 4 -12 -52 -45 -77 -45 -7 0 -19 -5 -27 -10 -11 -8 -12 -12 -3
-18 10 -6 9 -14 -2 -36 -18 -34 -19 -39 -4 -30 7 4 10 3 7 -2 -2 -5 -12 -28
-22 -51 -10 -24 -21 -43 -25 -43 -17 0 -20 -202 -2 -208 9 -3 9 -7 0 -18 -16
-20 0 -17 25 3 15 13 14 10 -3 -10 -14 -15 -22 -29 -19 -32 2 -3 13 4 23 15
21 23 45 26 45 5 0 -8 6 -12 14 -9 11 4 13 0 9 -17 -5 -16 -3 -20 6 -14 9 5 9
0 -1 -16 -13 -21 -16 -43 -8 -51 8 -8 6 -96 -3 -113 -7 -14 -6 -17 1 -10 6 6
25 37 41 70 17 33 31 51 31 40 -1 -11 -12 -42 -25 -70 -27 -54 -32 -90 -14
-101 8 -4 9 1 5 17 -9 32 9 4 19 -31 7 -21 6 -23 -7 -13 -12 11 -15 8 -15 -18
0 -25 4 -29 21 -27 12 2 20 10 18 17 -2 8 3 11 13 8 12 -5 15 2 15 38 0 24 -4
46 -9 49 -5 3 -9 46 -9 96 0 51 4 87 9 84 5 -3 15 8 22 25 7 17 17 28 21 24 4
-4 4 0 1 9 -4 9 -2 19 4 23 6 3 11 17 11 31 0 13 5 24 10 24 6 0 10 4 10 9 0
6 -16 3 -35 -5 -43 -18 -46 -18 -39 1 4 8 12 15 20 15 8 0 14 5 14 10 0 6 -5
10 -11 10 -5 0 -7 5 -4 10 4 6 11 8 16 5 5 -4 9 -1 9 5 0 7 -8 9 -22 4 -20 -6
-21 -5 -10 9 8 9 11 20 8 25 -7 11 27 52 42 52 6 0 9 7 6 15 -3 8 1 24 9 36 9
12 13 27 11 34 -3 7 4 16 15 20 12 3 19 10 16 15 -6 9 55 33 64 24 3 -3 -7
-17 -22 -30 -18 -15 -23 -24 -13 -24 8 0 22 7 31 16 18 18 85 28 85 13 0 -6
-9 -7 -20 -4 -14 5 -9 -5 17 -30 23 -23 37 -44 35 -56 -2 -14 3 -19 20 -20 13
0 17 -3 10 -6 -10 -4 -10 -8 -1 -19 9 -11 9 -18 1 -26 -14 -14 -33 -1 -25 19
4 11 2 14 -8 11 -9 -3 -13 -15 -11 -32 2 -16 0 -26 -5 -23 -4 3 -16 -1 -26 -8
-12 -8 -14 -15 -8 -20 6 -3 11 -1 11 4 0 21 15 10 29 -20 10 -22 19 -29 31
-26 13 3 17 0 13 -9 -3 -8 0 -14 6 -14 6 0 11 -5 11 -11 0 -6 -9 -8 -21 -4
-15 5 -19 4 -15 -4 12 -18 -16 -12 -30 6 -7 10 -16 15 -20 11 -4 -4 -1 -15 7
-25 12 -15 12 -16 -3 -10 -13 4 -18 1 -18 -11 -1 -10 -20 -26 -51 -41 -33 -15
-47 -26 -39 -31 9 -6 8 -14 -4 -33 -16 -23 -16 -25 1 -31 9 -4 14 -4 10 0 -4
4 10 16 30 25 47 23 53 23 53 3 0 -8 -4 -12 -10 -9 -5 3 -10 2 -10 -2 0 -11
-66 -47 -77 -42 -4 2 -7 9 -5 14 2 6 0 6 -4 2 -4 -4 -9 -15 -10 -23 -2 -13 4
-15 28 -12 28 5 29 4 13 -9 -11 -7 -33 -14 -49 -14 l-31 -2 28 -4 c27 -4 28
-5 10 -19 -17 -13 -17 -14 2 -7 11 4 31 15 46 25 24 18 65 16 53 -3 -5 -9 14
-50 28 -60 6 -4 -2 -9 -16 -13 -18 -4 -32 -2 -42 9 -23 22 -54 38 -54 26 0 -5
6 -11 13 -14 8 -3 3 -11 -13 -25 l-25 -20 29 5 c19 4 27 2 22 -5 -3 -6 1 -12
11 -14 15 -3 15 -4 -1 -21 -10 -9 -13 -17 -7 -17 5 0 13 4 16 10 4 6 15 2 27
-10 29 -27 46 -25 60 6 11 23 13 24 19 7 4 -11 0 -24 -12 -34 -10 -8 -25 -35
-35 -60 -9 -24 -23 -49 -30 -55 -7 -6 -11 -20 -7 -32 5 -22 -10 -31 -22 -12
-3 6 -1 10 5 10 6 0 8 5 4 11 -4 8 -9 7 -15 -2 -4 -7 -3 -19 3 -26 5 -7 7 -24
4 -38 -10 -39 8 -29 28 15 10 22 22 40 27 40 5 0 9 -2 9 -5 0 -8 -24 -48 -37
-63 -7 -7 -13 -24 -13 -38 0 -13 -5 -24 -11 -24 -5 0 -7 -5 -4 -10 9 -14 -13
-40 -33 -40 -12 0 -13 3 -4 12 16 16 15 28 -1 28 -15 0 -37 -41 -37 -67 0 -9
-6 -13 -15 -9 -10 4 -15 -1 -15 -14 0 -25 -16 -26 -25 -2 -6 16 -7 16 -16 0
-13 -24 -26 -23 -34 2 -3 11 -10 20 -15 20 -5 0 2 -21 16 -47 18 -36 24 -59
21 -91 -2 -23 1 -46 6 -49 6 -4 7 -1 2 7 -5 9 -4 11 3 6 7 -4 12 -17 12 -28 0
-21 0 -21 -27 3 -16 13 -5 0 22 -29 28 -29 106 -93 175 -142 69 -50 166 -119
215 -155 50 -36 96 -70 104 -74 11 -7 10 -13 -8 -32 -13 -13 -43 -52 -68 -87
-25 -35 -50 -61 -56 -59 -7 2 -42 53 -80 113 -85 136 -152 225 -278 372 -98
114 -116 144 -106 182 3 11 2 20 -2 20 -14 0 -38 -34 -71 -100 -34 -67 -95
-150 -112 -150 -5 0 -63 -25 -130 -56 l-120 -55 -40 26 c-43 28 -148 133 -148
147 0 4 -7 8 -17 8 -9 0 -14 3 -10 6 3 4 0 13 -8 20 -7 8 -15 19 -18 26 -4 10
-7 10 -17 1 -11 -10 -8 -29 13 -100 15 -48 27 -109 27 -134 0 -50 -34 -338
-45 -382 l-7 -27 716 0 c523 0 716 3 716 11 0 8 4 8 13 1 6 -5 52 -10 101 -11
l89 -2 -16 23 c-9 13 -31 50 -49 82 -45 81 -95 129 -128 122 -31 -6 -61 8 -37
17 20 8 93 115 124 184 23 50 24 59 14 111 -9 45 -8 77 4 151 15 93 23 115 56
161 29 40 49 135 50 244 1 56 7 107 13 115 6 7 14 57 17 110 4 53 10 114 13
136 4 22 8 56 10 75 7 58 18 100 27 100 11 0 10 127 -1 170 -5 19 -12 47 -15
62 -3 16 -14 30 -27 34 -20 6 -21 7 -2 17 17 10 16 12 -11 23 -23 10 -25 13
-10 14 17 0 16 3 -8 18 -15 9 -25 22 -23 29 3 7 1 15 -3 18 -5 2 -11 -4 -14
-15 -3 -11 -9 -20 -14 -20 -11 0 -11 30 1 48 4 7 1 12 -8 12 -9 0 -16 5 -16
11 0 6 -7 9 -14 6 -10 -4 -13 -1 -9 9 6 17 -18 19 -36 2 -11 -10 -13 -10 -7 0
11 18 -5 14 -20 -5 -7 -10 -14 -13 -14 -7 0 6 7 17 16 24 8 8 19 21 24 31 8
13 6 17 -8 15 -9 -2 -22 -13 -28 -25 -20 -39 -27 -36 -21 9 3 25 9 53 12 62 4
11 -1 21 -16 29 -20 10 -26 8 -46 -15 l-23 -27 0 28 c1 25 29 91 30 68 0 -5
43 34 96 88 52 53 94 102 92 107 -2 5 -38 -27 -82 -70z m-251 -1035 c-3 -44
-5 -93 -4 -110 1 -16 2 -42 3 -57 0 -16 5 -28 9 -28 5 0 6 -4 2 -9 -3 -6 -21
-1 -41 11 -24 14 -44 19 -65 14 -38 -7 -45 8 -24 57 9 21 11 37 5 37 -10 0 -8
50 4 69 4 7 16 9 27 6 16 -5 20 -3 17 12 -2 14 3 17 21 15 20 -2 22 1 17 23
-4 14 -2 25 2 25 5 0 8 12 6 28 -3 26 -2 26 13 7 12 -16 13 -37 8 -100z m-160
-395 c3 -5 14 -10 23 -9 14 0 14 2 -3 10 -15 7 -12 8 15 4 19 -3 42 -13 50
-21 14 -15 13 -15 -10 -9 l-25 8 25 -21 c30 -26 7 -31 -28 -6 -12 8 -22 10
-22 5 0 -6 5 -11 10 -11 6 0 9 -12 7 -27 -2 -16 0 -34 6 -40 7 -9 5 -13 -7
-13 -9 0 -16 -5 -16 -11 0 -6 7 -9 15 -5 9 3 19 -3 25 -15 13 -23 4 -43 -16
-35 -13 5 -18 -5 -15 -31 2 -13 -29 -22 -67 -20 -13 1 -32 13 -43 28 -16 22
-17 31 -6 58 7 19 18 31 29 31 11 0 18 7 18 20 0 23 10 26 29 8 11 -11 13 -10
9 2 -3 8 -13 16 -24 16 -37 3 -39 5 -20 19 17 13 18 15 3 15 -21 0 -21 5 1 35
19 27 28 30 37 15z"/>
<path d="M2172 1461 c-9 -27 -37 -58 -47 -54 -6 2 -10 -18 -10 -47 0 -27 -3
-50 -7 -50 -5 0 -8 -4 -8 -10 0 -5 6 -7 14 -4 11 4 13 0 9 -18 -5 -22 -5 -22
9 -4 11 14 17 16 22 7 5 -7 6 -15 3 -18 -9 -9 53 -71 88 -87 38 -18 85 -21 85
-6 0 7 6 8 16 2 9 -5 25 -7 34 -5 12 3 21 -4 28 -26 6 -18 9 -38 6 -45 -3 -8
-1 -17 5 -20 6 -4 13 5 17 21 7 31 44 96 50 90 2 -2 -5 -25 -16 -51 -12 -25
-18 -51 -14 -57 3 -6 1 -29 -6 -50 -10 -28 -10 -45 -3 -61 11 -23 11 -23 23 7
6 17 13 39 15 50 2 11 8 38 14 60 11 44 6 94 -15 134 -8 14 -14 32 -14 39 0
17 -17 15 -28 -4 -8 -14 -10 -12 -14 9 -3 14 -1 32 3 39 5 7 9 41 9 76 0 61 0
62 -27 62 -16 1 -55 8 -88 16 -88 23 -145 25 -153 5z"/>
<path d="M1060 618 c-33 -40 -43 -55 -105 -144 -28 -41 -75 -70 -131 -79 -22
-4 -61 -13 -89 -21 -27 -7 -88 -18 -135 -24 -47 -6 -121 -17 -165 -25 -44 -9
-114 -21 -156 -28 -58 -10 -90 -21 -132 -49 -56 -37 -60 -44 -71 -108 -4 -19
-20 -55 -36 -79 -17 -24 -30 -48 -30 -53 0 -4 351 -8 780 -8 429 0 780 2 780
6 0 11 -109 175 -199 298 -52 72 -94 136 -94 143 0 6 -3 10 -6 8 -4 -2 -18 13
-31 33 -13 20 -46 60 -72 87 -26 28 -53 58 -60 68 -13 17 -16 15 -48 -25z"/>
<path d="M7314 525 c6 -26 25 -176 30 -240 3 -40 2 -46 -7 -27 -14 30 -29 28
-17 -2 5 -13 6 -27 2 -32 -4 -4 -1 -4 6 0 7 4 12 2 13 -6 0 -7 3 -24 5 -37 l4
-25 -27 25 -27 24 22 -29 c12 -15 19 -33 15 -40 -4 -6 2 -4 12 4 17 14 18 14
8 -5 -9 -15 -5 -31 18 -77 l29 -58 387 0 386 0 -24 26 c-31 34 -101 73 -269
152 -74 35 -146 72 -160 82 -14 9 -98 55 -188 101 -135 69 -166 89 -177 114
-7 17 -20 39 -29 50 l-17 20 5 -20z"/>
<path d="M5251 85 c-17 -15 -28 -31 -25 -36 3 -5 0 -8 -8 -7 -7 2 -12 -3 -10
-10 1 -8 -2 -11 -7 -8 -5 3 -14 0 -20 -8 -10 -12 8 -14 119 -15 97 -1 130 2
130 12 0 9 3 8 9 -2 5 -7 14 -12 20 -10 13 5 7 13 -50 66 -41 39 -47 42 -76
34 -19 -6 -35 -5 -41 1 -6 6 -21 0 -41 -17z"/>
</g>
</svg>
