<?xml version="1.0" standalone="no"?>
<!DOCTYPE svg PUBLIC "-//W3C//DTD SVG 20010904//EN"
 "http://www.w3.org/TR/2001/REC-SVG-20010904/DTD/svg10.dtd">
<svg version="1.0" xmlns="http://www.w3.org/2000/svg"
 width="821.000000pt" height="246.000000pt" viewBox="0 0 821.000000 246.000000"
 preserveAspectRatio="xMidYMid meet">
<metadata>
Created by potrace 1.15, written by Peter Selinger 2001-2017
</metadata>
<g transform="translate(0.000000,246.000000) scale(0.100000,-0.100000)"
fill="#000000" stroke="none">
<path d="M2227 2436 c10 -13 19 -20 21 -16 2 5 10 6 18 3 12 -4 13 -8 3 -14
-17 -10 8 -42 27 -35 8 3 13 0 11 -7 -1 -7 5 -10 13 -9 8 2 12 0 8 -4 -4 -4
-3 -13 3 -21 15 -17 43 -18 33 0 -4 6 -4 9 0 5 4 -3 8 -10 9 -15 1 -13 40 -40
67 -47 14 -3 20 -3 14 -1 -13 6 -1 109 14 128 6 7 11 17 12 22 1 6 4 12 7 15
4 3 3 -1 -1 -7 -5 -9 -2 -11 8 -7 8 3 12 12 9 20 -4 11 -34 14 -150 14 l-144
0 18 -24z"/>
<path d="M3605 2272 c-66 -5 -181 -31 -236 -52 -95 -38 -249 -153 -249 -187 0
-7 -4 -13 -9 -13 -15 0 -88 -151 -104 -215 -18 -71 -49 -306 -42 -313 3 -3 11
0 17 6 17 17 51 15 74 -5 10 -10 40 -35 66 -56 35 -27 51 -49 59 -80 21 -71
44 -87 55 -39 4 15 13 37 21 48 16 25 38 22 147 -16 71 -24 63 -23 70 -4 5 13
1 15 -19 12 -13 -3 -22 -2 -20 2 2 4 -15 13 -38 20 -70 21 -128 52 -123 65 2
7 -2 24 -9 38 -14 27 -10 67 6 67 5 0 9 12 9 26 0 15 6 32 14 38 21 16 54 122
44 140 -5 9 -2 20 8 31 10 9 16 30 16 48 -4 74 43 197 74 197 6 0 18 7 25 16
15 18 52 34 86 38 13 2 34 -8 52 -24 16 -16 35 -30 41 -32 7 -2 3 -13 -9 -27
-11 -13 -18 -28 -14 -34 4 -6 0 -8 -11 -4 -10 4 -15 3 -11 -3 3 -6 22 -10 41
-10 19 0 33 -4 30 -8 -3 -5 27 -3 67 5 106 19 118 23 112 32 -3 5 16 12 43 15
26 3 68 8 95 12 30 4 47 2 47 -4 0 -6 15 -28 34 -48 29 -31 42 -38 73 -38 43
0 53 -8 72 -53 7 -18 20 -38 27 -44 12 -10 13 -8 5 12 -25 65 -53 116 -105
196 -63 98 -109 134 -251 202 -68 33 -92 40 -160 43 -44 2 -98 2 -120 0z"/>
<path d="M7023 2239 c-6 -6 -42 -12 -80 -12 -41 -1 -73 -6 -81 -14 -15 -15
-36 -8 -26 9 3 5 -8 2 -25 -6 -17 -9 -31 -20 -31 -25 0 -4 -11 -6 -25 -3 -14
2 -22 8 -19 13 3 5 1 9 -4 9 -5 0 -12 -9 -15 -20 -3 -11 -11 -19 -19 -18 -7 2
-12 -4 -10 -13 2 -12 -5 -15 -30 -11 -27 4 -31 2 -20 -9 18 -20 14 -31 -7 -19
-25 13 -61 13 -61 0 0 -5 -16 -12 -36 -16 -28 -5 -35 -10 -31 -25 3 -12 0 -19
-8 -19 -7 0 -26 -7 -42 -14 -15 -8 -37 -18 -48 -21 -19 -6 -19 -7 -2 -19 23
-17 22 -29 -2 -21 -12 4 -21 0 -25 -12 -3 -10 -9 -25 -13 -33 -5 -13 -4 -13
11 -1 25 21 31 6 7 -18 -20 -20 -12 -38 12 -26 6 4 3 -1 -7 -9 -11 -9 -23 -16
-27 -16 -15 0 -39 -83 -39 -136 l0 -56 44 49 c42 45 48 63 24 63 -5 0 -8 -7
-4 -15 3 -8 0 -15 -6 -15 -6 0 -20 -8 -30 -17 -17 -15 -18 -15 -13 -1 4 9 13
19 21 22 9 3 13 10 10 14 -3 5 6 15 20 22 19 11 34 11 64 4 36 -10 37 -10 27
8 -9 14 -19 17 -44 12 -20 -4 -33 -2 -33 4 0 17 18 24 23 10 3 -8 6 -6 6 5 1
19 16 23 27 6 8 -13 51 -3 70 15 16 16 8 27 -14 19 -14 -4 -15 -3 -2 6 18 12
9 22 -33 38 l-32 11 37 -1 c20 -1 34 -4 32 -6 -8 -8 19 -31 37 -31 21 0 38 22
21 28 -6 2 -20 11 -30 20 -9 9 -13 14 -8 10 30 -23 118 24 100 53 -5 8 -3 9 7
4 22 -14 50 -13 56 2 3 9 8 11 12 5 9 -15 46 -19 44 -4 -4 17 22 15 37 -3 10
-12 16 -13 28 -3 13 10 14 10 8 1 -4 -8 -2 -13 4 -13 6 0 18 -7 26 -15 9 -8
21 -15 27 -15 8 0 7 4 -1 12 -19 19 -14 33 6 15 10 -10 28 -17 40 -17 13 0 22
-6 22 -15 0 -8 5 -16 10 -16 6 -1 15 -2 20 -3 6 0 15 -8 20 -16 5 -8 13 -15
17 -16 4 0 21 -6 36 -12 16 -7 37 -12 47 -12 19 0 47 -37 36 -48 -3 -3 -6 0
-6 7 0 21 -23 6 -25 -16 -1 -16 6 -23 27 -27 36 -7 37 -25 1 -19 l-28 4 23
-17 c12 -9 22 -24 23 -33 0 -10 2 -11 6 -3 7 19 22 14 34 -10 5 -13 16 -34 24
-48 12 -21 12 -28 0 -46 -12 -18 -11 -23 2 -37 21 -21 4 -43 -40 -53 -17 -3
-39 -11 -48 -17 -13 -8 -22 -7 -33 2 -13 11 -17 11 -22 -3 -12 -31 -10 -81 3
-102 9 -14 12 -44 10 -87 -2 -37 1 -68 5 -69 5 -2 9 -14 10 -28 0 -14 2 -37 5
-52 4 -24 8 -27 32 -22 29 6 50 -9 30 -22 -6 -3 -15 0 -20 7 -6 11 -13 9 -31
-8 -23 -22 -76 -48 -91 -44 -5 1 -6 -3 -2 -9 4 -6 1 -17 -5 -25 -7 -8 -10 -20
-7 -27 3 -9 7 -6 13 7 12 29 30 45 52 45 16 0 21 -8 24 -40 3 -38 2 -39 -32
-48 -19 -5 -34 -14 -33 -20 2 -8 -15 -12 -49 -12 -58 0 -59 -10 -1 -16 105
-12 116 -17 91 -42 -10 -10 -8 -14 10 -18 26 -8 28 -17 5 -44 -22 -25 -33 -25
-33 0 0 11 -7 20 -15 20 -22 0 -19 -14 10 -48 14 -17 25 -37 25 -45 0 -9 5
-19 10 -22 14 -9 13 -62 -2 -71 -8 -5 -5 -11 7 -20 18 -13 18 -14 0 -34 -17
-19 -20 -19 -43 -4 -23 15 -25 15 -19 0 4 -9 3 -15 -1 -12 -11 7 -142 17 -142
11 0 -3 20 -10 45 -16 44 -11 62 -29 29 -29 -10 0 -14 -6 -11 -14 3 -8 0 -20
-8 -26 -15 -12 -65 -3 -65 12 0 5 -6 6 -12 1 -7 -4 -21 -6 -30 -5 -24 4 -23
-15 2 -28 11 -6 20 -15 20 -20 0 -5 17 -25 37 -44 21 -19 36 -37 33 -39 -4 -4
-76 46 -164 115 -51 40 -52 32 -4 -16 26 -25 52 -46 57 -46 5 0 15 -8 22 -17
12 -15 12 -16 -6 -10 -25 9 -9 -5 137 -115 l108 -80 -24 -19 c-13 -10 -45 -50
-72 -89 -26 -38 -51 -70 -56 -70 -5 0 -21 21 -36 46 -79 134 -194 294 -296
414 -123 143 -151 188 -141 222 14 43 -16 6 -49 -62 -64 -129 -85 -149 -231
-218 -71 -34 -138 -62 -147 -62 -18 0 -95 56 -142 102 -23 23 -31 26 -43 16
-16 -13 -24 -6 -48 47 -18 39 -19 13 -1 -45 26 -87 28 -168 6 -325 -11 -82
-20 -162 -20 -177 l0 -28 632 0 c569 0 630 2 612 15 -17 14 -15 14 20 0 50
-19 123 -20 142 0 18 18 35 20 32 4 -2 -6 3 -14 11 -16 9 -4 11 0 8 13 -3 11
-9 43 -12 72 -7 54 5 70 25 32 6 -11 16 -17 25 -14 10 4 15 0 15 -12 0 -9 3
-14 7 -11 4 4 13 -7 20 -24 7 -17 17 -28 23 -24 5 3 10 1 10 -4 0 -6 4 -11 10
-11 16 0 -53 120 -96 167 -35 37 -46 43 -67 38 -44 -11 -52 4 -19 36 17 16 49
66 72 111 l43 82 2 135 c1 74 0 130 -3 123 -2 -7 -8 -12 -13 -12 -4 0 -6 7 -3
15 4 8 12 15 20 15 8 0 14 6 14 14 0 24 -28 12 -71 -32 -23 -24 -44 -40 -47
-37 -3 3 22 32 56 65 34 32 62 64 62 71 0 7 3 9 7 6 10 -11 53 55 68 106 8 27
18 104 21 171 4 70 12 124 18 128 6 4 12 43 13 90 1 46 5 101 8 123 4 22 9 64
11 94 2 30 9 60 14 66 5 7 7 15 3 19 -4 4 -2 11 5 15 14 9 25 138 12 146 -4 3
-11 22 -14 42 -12 65 -16 73 -41 73 -13 0 -27 5 -30 10 -3 6 1 10 9 10 23 0
20 21 -4 27 -11 3 -20 12 -20 20 0 8 5 11 12 7 6 -4 8 -3 5 4 -4 5 -19 9 -33
7 -21 -2 -25 1 -21 16 3 11 1 22 -4 25 -5 3 -7 9 -4 14 3 4 -2 10 -10 14 -8 3
-14 1 -12 -3 1 -5 -2 -9 -8 -9 -5 -1 -9 10 -8 24 2 21 -1 23 -12 14 -8 -6 -19
-9 -24 -6 -5 4 -12 2 -16 -4 -3 -5 -11 -10 -16 -10 -6 0 4 19 22 42 31 39 32
40 7 24 -14 -9 -29 -24 -32 -32 -8 -21 -29 -6 -23 17 3 12 0 19 -10 19 -8 0
-11 5 -8 10 3 6 0 10 -7 10 -7 1 -3 6 10 13 17 10 20 15 10 25 -17 17 -23 15
-37 -14 -12 -26 -12 -26 -30 -8 -10 11 -15 23 -11 28 10 10 -12 36 -29 36 -6
0 -11 4 -11 8 0 5 -10 8 -22 7 -13 -1 -26 2 -29 6 -3 5 -10 4 -16 -2z"/>
<path d="M1746 2155 c-35 -18 -49 -19 -41 -2 4 6 -3 1 -14 -13 -11 -14 -21
-29 -21 -33 0 -5 -7 -2 -15 7 -9 8 -22 13 -30 10 -10 -4 -15 0 -15 12 0 13 -3
15 -11 7 -9 -9 -8 -16 4 -28 9 -9 22 -24 29 -33 7 -10 28 -28 46 -41 18 -13
31 -25 28 -28 -8 -8 -106 8 -101 17 3 4 -3 6 -13 4 -9 -3 -42 -1 -72 3 -61 10
-90 7 -90 -8 0 -6 5 -7 11 -3 18 11 -1 -38 -27 -69 -13 -16 -24 -24 -24 -19 0
5 -10 14 -22 19 -28 13 -71 -9 -87 -44 -6 -13 -15 -22 -20 -19 -11 7 -53 -38
-44 -48 4 -4 3 -10 -3 -14 -6 -4 -14 -18 -18 -32 -6 -21 -5 -22 4 -7 6 9 15
17 19 17 16 0 4 -36 -22 -64 -15 -16 -27 -34 -27 -40 1 -6 10 0 21 13 16 19
22 22 32 12 9 -10 8 -15 -6 -26 -18 -13 -19 -34 -4 -46 4 -3 1 -12 -8 -19 -10
-8 -15 -9 -15 -2 0 6 -7 9 -16 5 -9 -3 -20 0 -26 8 -7 10 -7 7 -3 -9 4 -13 1
-29 -5 -37 -10 -12 -8 -15 12 -15 13 0 30 -6 38 -12 12 -11 12 -10 1 5 -12 15
-11 17 7 17 22 0 42 20 20 20 -7 1 1 7 17 14 17 7 41 27 54 45 13 17 33 31 45
31 20 1 20 1 -3 14 l-24 13 40 19 c22 10 50 34 62 52 12 17 25 32 30 32 12 0
2 -42 -13 -55 -18 -16 -42 -49 -30 -42 6 3 11 0 11 -7 0 -8 -7 -12 -14 -9 -8
3 -13 2 -11 -3 1 -5 -4 -20 -11 -33 -12 -21 -11 -23 3 -18 24 9 19 -11 -6 -24
-32 -17 -93 -76 -108 -104 -7 -14 -21 -25 -30 -25 -36 0 -84 -85 -54 -97 23
-9 -3 -33 -36 -33 -67 0 -124 -88 -123 -190 0 -67 48 -231 93 -320 12 -23 24
-70 27 -105 6 -62 8 -66 51 -100 25 -19 111 -99 192 -178 111 -108 178 -163
279 -231 74 -49 154 -107 178 -128 50 -43 58 -47 43 -19 -7 13 -7 22 0 26 5 3
10 44 10 91 0 124 33 110 43 -19 7 -99 25 -110 29 -19 3 41 7 52 23 56 11 3
22 1 23 -4 5 -15 23 -12 20 3 -2 15 37 79 44 72 3 -3 13 6 22 20 9 14 23 25
31 25 8 0 15 4 15 8 0 5 19 29 43 53 23 24 33 36 21 26 -27 -22 -33 -22 -75 7
-20 14 -48 28 -62 31 -15 4 -26 10 -25 14 2 12 -14 41 -23 41 -5 0 -9 -13 -9
-29 0 -40 -35 -49 -66 -16 -13 14 -29 22 -38 19 -9 -3 -19 3 -26 16 -6 11 -15
18 -20 15 -12 -7 -60 34 -60 52 0 7 -7 13 -15 13 -10 0 -15 10 -15 28 0 21 -2
24 -10 12 -8 -13 -10 -13 -10 2 0 9 -10 29 -23 44 -23 26 -24 26 -50 10 -37
-25 -67 -7 -67 39 0 18 -7 41 -16 49 -9 10 -11 16 -4 16 6 0 10 10 9 23 -3 30
11 99 24 115 7 9 4 21 -12 43 -19 25 -20 30 -6 35 9 4 15 15 13 28 -2 11 2 21
9 21 6 0 15 3 19 8 4 4 2 7 -6 7 -10 0 -10 3 0 15 7 8 17 15 23 15 11 0 47 39
47 52 0 4 -4 8 -10 8 -5 0 -10 6 -10 14 0 14 -27 31 -43 27 -5 -1 -6 3 -2 9 8
13 62 13 70 0 8 -13 57 -13 92 2 l28 11 -40 8 c-22 4 -53 12 -69 18 -25 10
-27 13 -15 28 26 32 49 53 58 53 5 0 11 7 15 15 7 20 32 19 53 -4 10 -10 31
-21 46 -25 33 -8 52 -45 31 -61 -8 -5 -16 -34 -18 -62 -5 -53 -27 -93 -84
-153 -13 -13 -31 -38 -39 -55 -8 -16 -30 -46 -48 -65 -42 -46 -52 -83 -26
-107 11 -10 21 -34 24 -53 3 -31 5 -32 12 -13 8 24 48 32 60 13 8 -13 45 -13
45 0 0 12 37 14 44 2 3 -5 20 -6 38 -4 103 13 143 12 207 -2 92 -21 91 -21 40
17 -48 37 -112 62 -129 52 -6 -4 -20 1 -31 11 -14 13 -34 17 -78 15 -53 -2
-60 0 -66 19 -9 29 -1 35 43 31 21 -1 51 5 67 13 17 9 40 16 53 16 12 0 31 9
42 20 12 12 25 18 31 14 17 -10 59 5 59 21 0 18 -14 19 -42 4 -15 -8 -19 -8
-14 0 4 6 -1 14 -11 18 -29 11 -83 57 -83 71 0 7 7 26 15 43 25 48 22 133 -7
198 -13 28 -18 55 -14 73 3 16 2 27 -3 23 -5 -3 -7 3 -4 14 3 13 -4 22 -29 32
-60 26 -118 64 -118 79 0 12 -2 12 -9 1 -6 -9 -11 -10 -15 -2 -4 6 -4 11 1 11
4 0 -3 7 -15 16 -25 17 -29 34 -7 34 8 0 15 7 15 15 0 8 9 20 20 27 21 14 27
38 9 38 -6 0 -8 7 -5 17 4 10 4 15 1 11 -11 -11 -41 26 -37 45 3 11 -1 17 -12
17 -11 0 -16 9 -16 31 0 17 -4 38 -9 48 -12 22 4 53 17 33 6 -9 12 -6 20 13 6
14 16 25 21 25 5 0 17 7 25 16 15 14 17 14 22 0 8 -22 24 -20 24 3 0 10 7 22
16 25 8 3 12 2 9 -4 -4 -6 1 -7 11 -3 14 5 16 3 11 -11 -6 -15 -2 -16 41 -10
26 3 53 11 60 17 13 10 27 3 27 -16 0 -17 25 -20 31 -3 9 22 35 21 28 -1 -5
-15 -4 -15 4 -3 6 8 9 17 6 21 -2 4 5 10 16 14 29 9 15 25 -23 25 -30 1 -31 1
-13 15 19 15 19 15 -5 15 -13 0 -36 -6 -51 -14 -18 -9 -29 -11 -36 -4 -7 7
-22 4 -48 -11 -46 -27 -56 -20 -18 13 16 14 24 26 17 26 -6 0 -15 -4 -18 -10
-3 -5 -13 -10 -22 -10 -11 0 -9 5 8 21 26 22 23 22 -38 3 -20 -5 -23 -3 -23
20 0 29 -6 31 -46 16 l-27 -11 18 27 c16 25 16 26 -4 19 -16 -5 -20 -3 -15 9
3 9 1 16 -4 16 -6 0 -12 -10 -14 -22 -2 -12 -10 -24 -18 -26 -12 -4 -13 -2 -4
9 6 8 9 22 5 31 -6 16 -9 16 -35 3z"/>
<path d="M5585 2099 c-103 -27 -162 -35 -341 -43 l-71 -3 -67 -65 c-36 -35
-66 -70 -66 -76 0 -13 60 -32 74 -24 5 3 34 7 65 8 97 6 109 9 104 21 -6 14
28 26 51 17 9 -3 16 -1 16 5 0 7 8 7 26 0 33 -12 40 -6 19 15 -19 18 -8 20 31
6 l27 -11 -6 43 c-3 23 -2 36 2 29 6 -9 10 -7 14 8 5 21 41 29 51 12 3 -4 18
-11 33 -14 16 -3 40 -17 55 -32 15 -14 31 -25 35 -24 22 4 33 -3 33 -21 0 -11
5 -20 10 -20 6 0 9 -3 8 -7 -2 -10 9 -39 28 -78 8 -17 16 -42 18 -55 10 -77
47 -211 66 -235 4 -5 10 -23 14 -40 7 -28 6 -29 -8 -10 -8 11 -18 16 -22 12
-5 -4 -2 -12 5 -16 7 -5 11 -17 9 -27 -2 -11 0 -23 4 -29 5 -5 17 -21 27 -35
17 -21 22 -23 33 -11 11 12 10 13 -4 8 -20 -7 -23 -3 -32 43 -5 22 -4 30 2 22
14 -20 25 14 12 38 -6 10 -10 29 -9 42 0 23 0 23 9 2 5 -12 15 -26 22 -30 10
-6 10 -5 2 7 -6 8 -14 27 -18 44 -7 29 -7 29 13 11 12 -11 21 -14 21 -8 0 6
-5 14 -10 17 -6 4 -8 16 -4 27 6 20 -23 51 -38 42 -5 -3 -8 -1 -8 3 0 5 -12
21 -27 37 -14 16 -27 42 -28 58 l-2 28 28 -32 c16 -18 29 -31 30 -28 0 3 2 19
3 37 2 27 -1 30 -14 21 -11 -9 -10 -7 2 7 16 17 18 17 42 2 21 -14 24 -15 20
-2 -4 8 -10 15 -15 15 -5 0 -9 5 -9 11 0 6 7 9 15 5 8 -3 15 -3 15 -1 0 12
-35 75 -42 75 -4 0 -8 9 -8 20 0 10 -7 23 -15 27 -9 5 -12 17 -8 31 4 18 8 20
19 11 11 -9 14 -7 14 8 0 16 -5 19 -27 15 -22 -4 -25 -2 -20 12 6 14 3 16 -13
11 -14 -5 -20 -2 -20 10 0 9 -4 13 -10 10 -5 -3 -10 -1 -10 5 0 6 -4 8 -10 5
-5 -3 -10 -1 -10 5 0 7 -7 10 -15 6 -8 -3 -15 -1 -15 3 0 5 6 12 13 14 9 4 9
6 0 6 -7 1 -10 8 -7 16 4 8 5 15 3 14 -2 -1 -53 -14 -114 -30z"/>
<path d="M4776 1840 c-37 -10 -73 -23 -80 -30 -7 -7 -12 -73 -13 -193 -1 -100
-4 -227 -7 -282 -4 -75 -2 -111 9 -145 13 -38 15 -39 10 -11 -4 27 8 89 22
110 1 2 11 -7 22 -20 14 -18 16 -28 8 -44 -5 -11 -13 -26 -17 -34 -12 -26 67
-161 84 -144 3 4 6 -1 6 -10 0 -15 -11 -22 -32 -18 -13 2 -9 -16 7 -29 8 -7
21 -10 30 -7 17 7 45 -18 45 -39 0 -18 -11 -18 -36 1 -24 18 -40 19 -25 1 7
-8 23 -17 36 -20 32 -8 44 -54 44 -166 0 -95 38 -253 70 -299 21 -29 242 -245
309 -303 55 -46 76 -44 133 14 155 158 201 209 179 198 -14 -7 -42 -33 -63
-57 -21 -24 -43 -40 -48 -37 -11 7 -39 -14 -39 -28 0 -6 8 -5 18 3 9 7 4 0
-11 -15 -23 -22 -35 -27 -58 -22 -17 3 -29 1 -29 -5 0 -6 4 -8 9 -4 5 3 12 1
16 -5 4 -6 -6 -10 -24 -10 -35 0 -48 -15 -31 -35 16 -19 11 -19 -28 1 -18 8
-32 21 -31 27 0 8 2 8 6 0 2 -7 12 -13 21 -13 15 1 14 3 -3 16 -11 8 -25 12
-31 10 -7 -3 -15 1 -18 9 -4 10 6 13 42 9 l47 -4 -35 20 c-19 10 -29 19 -22
20 7 0 10 5 7 10 -4 6 -10 8 -15 5 -5 -3 -12 0 -16 6 -10 16 15 29 57 29 35 0
89 19 89 31 0 4 -8 9 -18 11 -25 7 -24 34 1 35 28 3 32 10 19 38 -12 25 -7 55
9 55 5 0 9 7 9 15 0 17 -16 20 -25 5 -3 -5 -15 -10 -26 -10 -11 0 -18 -4 -15
-9 3 -5 -1 -12 -10 -15 -22 -9 -24 -8 -18 9 4 10 0 15 -15 15 -12 0 -21 -6
-21 -12 0 -9 -3 -8 -10 2 -8 12 -10 12 -16 -3 -9 -24 -30 -21 -83 10 -52 30
-71 47 -71 62 0 6 -6 11 -14 11 -10 0 -14 12 -14 38 0 67 -12 127 -30 142 -40
37 -63 131 -43 182 8 21 6 29 -10 44 -11 10 -17 24 -14 32 3 9 -9 26 -29 44
-19 16 -41 47 -50 69 -9 22 -20 37 -25 34 -5 -3 -12 3 -16 14 -3 11 -16 21
-28 23 -20 3 -22 8 -20 68 2 45 0 60 -7 50 -7 -11 -9 -5 -8 23 1 39 18 64 18
27 0 -12 5 -18 10 -15 12 8 13 82 1 89 -5 3 -7 27 -6 53 11 166 18 240 26 255
6 11 5 18 -4 21 -9 3 -7 9 6 24 9 11 17 26 17 34 0 8 7 25 16 37 14 21 14 22
-8 21 -13 0 -54 -9 -92 -19z"/>
<path d="M6759 1547 c-29 -25 -31 -29 -11 -24 12 3 37 1 55 -3 17 -5 51 -14
74 -20 26 -6 47 -19 54 -33 l12 -22 -25 23 c-21 19 -34 23 -79 20 -48 -3 -51
-5 -30 -14 l25 -11 -30 -6 c-49 -10 -85 -26 -79 -37 4 -6 13 -5 26 3 18 10 23
9 36 -10 19 -28 50 -30 58 -3 3 11 14 20 22 20 13 0 12 -5 -7 -25 -13 -14 -29
-25 -36 -25 -7 0 -16 -5 -20 -12 -5 -7 -2 -9 7 -6 19 7 50 -15 41 -28 -4 -6
-18 -18 -32 -27 -42 -29 1 -19 57 13 55 31 77 59 67 83 -3 8 2 17 12 21 13 5
15 2 9 -21 -5 -22 -4 -25 8 -14 12 9 13 20 4 54 -6 23 -15 45 -21 49 -7 5 -4
8 6 8 9 0 19 4 22 9 13 21 -8 39 -52 46 -26 5 -56 10 -67 12 -62 11 -74 9
-106 -20z"/>
<path d="M2172 1410 c-36 -22 -62 -67 -46 -78 6 -4 13 -15 17 -24 6 -18 9 -18
134 -23 39 -1 87 -34 91 -64 5 -32 17 -25 19 11 4 53 -43 89 -159 122 -65 19
-70 40 -12 51 19 3 32 10 29 16 -10 15 -37 11 -73 -11z"/>
<path d="M5447 1416 c-57 -21 -67 -33 -67 -83 0 -34 3 -44 14 -40 7 3 18 1 23
-4 7 -7 15 -5 25 4 12 12 17 13 33 1 22 -16 92 -19 97 -4 2 6 9 1 15 -10 11
-17 10 -19 -5 -14 -14 5 -14 4 -2 -4 10 -8 18 -8 27 0 9 7 17 7 26 -1 11 -9
13 -5 12 20 -1 20 2 28 11 25 7 -3 18 2 24 10 7 8 10 14 7 14 -3 0 -2 14 3 30
8 28 6 33 -23 50 -39 24 -160 27 -220 6z"/>
<path d="M4952 1394 c-32 -13 -69 -57 -52 -62 6 -2 7 -8 4 -13 -3 -6 5 -26 18
-45 18 -27 28 -34 47 -30 15 2 36 -4 52 -16 15 -11 33 -18 41 -15 9 4 7 6 -5
6 -11 1 -15 6 -11 13 4 6 3 8 -4 4 -6 -3 -13 -2 -17 4 -5 9 15 15 38 11 4 -1
15 5 23 14 17 16 69 20 78 6 4 -5 -8 -21 -25 -35 -17 -14 -25 -26 -19 -26 6 0
22 11 36 25 20 21 29 23 40 14 11 -9 20 -7 40 6 23 14 25 22 21 52 -10 57 -31
81 -79 87 -99 12 -197 12 -226 0z"/>
<path d="M5180 975 c0 -8 10 -33 21 -55 21 -40 21 -41 3 -55 -26 -20 -9 -19
21 1 13 9 30 14 37 11 8 -4 4 -8 -10 -13 -14 -4 -19 -10 -13 -14 6 -3 -21 -7
-61 -8 -112 -2 -125 -8 -95 -42 9 -11 17 -27 17 -35 0 -7 4 -16 10 -20 5 -3 7
-12 4 -19 -3 -7 2 -16 11 -20 13 -5 15 -1 10 14 -8 26 7 26 30 0 16 -17 16
-20 2 -20 -49 0 -14 -48 58 -79 38 -16 66 -21 115 -18 36 1 71 6 78 10 6 5 16
6 21 3 5 -3 8 2 7 11 0 9 9 22 21 28 13 7 21 14 18 17 -3 3 -1 18 5 33 7 19
15 25 26 21 10 -4 14 -1 12 6 -2 6 -9 13 -16 16 -11 3 -18 -4 -59 -56 -17 -22
-27 -24 -113 -25 -86 -2 -97 0 -117 21 l-23 22 30 0 c17 0 30 -4 30 -10 0 -5
7 -10 15 -10 20 0 19 17 -2 29 -20 12 -16 13 47 16 88 3 190 36 190 61 0 9
-36 11 -155 9 -85 -2 -157 0 -160 5 -5 8 57 21 120 25 22 1 45 3 52 4 6 0 13
16 15 33 2 24 8 33 23 35 11 2 14 0 8 -3 -21 -9 -14 -26 9 -22 16 2 23 10 23
28 0 14 6 35 12 46 7 12 10 23 8 26 -8 8 -65 -4 -65 -13 0 -5 -7 -9 -15 -9 -8
0 -15 -4 -15 -10 0 -15 -22 -12 -66 9 -56 26 -124 36 -124 16z"/>
<path d="M5713 741 c-13 -11 -23 -25 -23 -33 0 -16 -39 -21 -56 -7 -8 7 -14 7
-19 -1 -3 -5 -3 -10 1 -10 3 0 2 -6 -4 -13 -6 -7 -9 -29 -7 -49 2 -26 -2 -41
-16 -54 -10 -9 -19 -25 -19 -36 0 -10 -5 -18 -10 -18 -12 0 -60 -49 -60 -61 0
-9 -48 -59 -57 -59 -3 0 -3 9 0 19 3 14 1 18 -10 14 -8 -3 -12 -12 -9 -20 3
-8 6 -17 6 -19 0 -13 33 0 55 22 20 20 29 23 40 14 10 -9 23 -5 54 14 22 14
45 26 51 26 5 0 10 7 10 15 0 8 5 15 11 15 6 0 8 -7 5 -16 -3 -8 -2 -12 4 -9
6 3 10 12 10 20 0 8 8 20 18 27 9 7 17 19 18 26 1 6 2 21 3 33 0 11 5 18 10
15 15 -9 19 16 12 71 -4 28 -4 60 1 72 9 25 9 25 -19 2z"/>
<path d="M1050 600 c-121 -173 -160 -210 -217 -210 -10 0 -54 -8 -98 -19 -44
-11 -118 -25 -165 -31 -47 -7 -107 -16 -135 -20 -219 -35 -224 -36 -279 -73
-52 -34 -56 -41 -76 -107 -11 -38 -25 -70 -29 -70 -10 0 -36 -59 -29 -65 3 -3
352 -4 776 -3 l771 3 -79 120 c-126 192 -380 525 -400 525 -3 0 -21 -23 -40
-50z"/>
<path d="M2717 557 c-12 -13 -44 -52 -72 -87 -67 -86 -91 -107 -151 -135 -29
-13 -83 -44 -121 -68 -37 -24 -102 -60 -143 -80 -41 -19 -98 -53 -127 -74 -28
-21 -59 -43 -68 -48 -15 -9 -12 -14 24 -38 l41 -27 565 0 565 0 -43 68 c-39
60 -131 187 -205 282 -15 19 -62 70 -104 113 -43 43 -78 87 -78 98 0 28 -55
26 -83 -4z"/>
<path d="M4860 540 c-13 -16 -27 -27 -31 -24 -4 2 -43 -23 -87 -56 -64 -49
-94 -65 -163 -85 -108 -31 -319 -103 -434 -148 -239 -94 -259 -107 -323 -195
l-23 -32 539 0 539 0 7 61 c8 86 7 198 -4 302 -5 53 -5 110 0 144 5 31 8 58 7
59 -2 2 -14 -10 -27 -26z"/>
<path d="M7325 493 c16 -91 55 -347 61 -393 4 -30 11 -65 15 -77 l9 -23 374 0
c417 0 411 -1 314 61 -28 18 -137 76 -242 129 -422 212 -485 248 -506 291 -24
46 -31 49 -25 12z"/>
<path d="M3480 480 c0 -5 6 -10 14 -10 20 0 28 -42 11 -60 -21 -24 -18 -33 6
-19 17 9 24 7 38 -8 14 -15 18 -53 6 -53 -2 0 -27 16 -56 35 -30 19 -57 35
-61 35 -4 0 -5 15 -2 33 4 23 3 28 -4 17 -6 -8 -8 -18 -6 -22 7 -11 -13 -10
-39 3 -30 14 46 -53 111 -98 44 -31 55 -35 62 -23 6 8 10 12 10 8 0 -4 20 4
44 17 25 14 51 25 60 25 8 0 16 3 18 8 5 11 68 42 85 42 23 0 7 13 -20 17 -12
2 -48 10 -80 18 -69 18 -70 18 -62 5 3 -5 1 -10 -4 -10 -6 0 -11 7 -11 16 0
14 -3 14 -15 4 -12 -10 -15 -10 -15 4 0 20 -19 21 -26 1 -8 -19 -24 -20 -24
-1 0 8 -7 17 -16 20 -21 8 -24 8 -24 -4z"/>
</g>
</svg>
